<svg xmlns="http://www.w3.org/2000/svg" viewBox="0 0 1200 400" width="1200" height="400" preserveAspectRatio="xMidYMid slice"><defs><linearGradient id="g" x1="0" y1="0" x2="0" y2="1"><stop offset="0" stop-color="#0b1026"/><stop offset="1" stop-color="#2a3a6e"/></linearGradient></defs><rect width="1200" height="400" fill="url(#g)"/><circle cx="228" cy="12" r="1.5" fill="#fff" opacity="0.55"/><circle cx="285" cy="52" r="1" fill="#fff" opacity="0.75"/><circle cx="65" cy="15" r="1" fill="#fff" opacity="0.53"/><circle cx="1034" cy="13" r="1" fill="#fff" opacity="0.83"/><circle cx="1116" cy="214" r="1" fill="#fff" opacity="0.67"/><circle cx="569" cy="3" r="1" fill="#fff" opacity="0.82"/><circle cx="696" cy="142" r="1" fill="#fff" opacity="0.53"/><circle cx="689" cy="52" r="1" fill="#fff" opacity="0.63"/><circle cx="735" cy="176" r="1.5" fill="#fff" opacity="0.88"/><circle cx="940" cy="63" r="2" fill="#fff" opacity="0.45"/><circle cx="600" cy="185" r="1" fill="#fff" opacity="0.82"/><circle cx="93" cy="116" r="1.5" fill="#fff" opacity="0.99"/><circle cx="476" cy="51" r="2" fill="#fff" opacity="0.57"/><circle cx="747" cy="83" r="1.5" fill="#fff" opacity="0.61"/><circle cx="546" cy="36" r="1" fill="#fff" opacity="0.72"/><circle cx="501" cy="83" r="2" fill="#fff" opacity="0.63"/><circle cx="1140" cy="112" r="1.5" fill="#fff" opacity="0.91"/><circle cx="114" cy="117" r="1" fill="#fff" opacity="0.88"/><circle cx="821" cy="137" r="1" fill="#fff" opacity="0.53"/><circle cx="1161" cy="161" r="1" fill="#fff" opacity="0.79"/><circle cx="810" cy="234" r="1" fill="#fff" opacity="0.56"/><circle cx="505" cy="134" r="2" fill="#fff" opacity="0.94"/><circle cx="817" cy="185" r="1" fill="#fff" opacity="1.00"/><circle cx="283" cy="260" r="2" fill="#fff" opacity="0.45"/><circle cx="96" cy="56" r="1" fill="#fff" opacity="0.78"/><circle cx="864" cy="32" r="2" fill="#fff" opacity="0.63"/><circle cx="958" cy="128" r="1" fill="#fff" opacity="0.81"/><circle cx="234" cy="136" r="1.5" fill="#fff" opacity="0.47"/><circle cx="890" cy="80" r="2" fill="#fff" opacity="0.40"/><circle cx="539" cy="256" r="1" fill="#fff" opacity="0.70"/><circle cx="217" cy="152" r="1" fill="#fff" opacity="0.49"/><circle cx="330" cy="0" r="1.5" fill="#fff" opacity="0.69"/><circle cx="229" cy="185" r="1.5" fill="#fff" opacity="0.54"/><circle cx="493" cy="40" r="1" fill="#fff" opacity="0.84"/><circle cx="141" cy="64" r="1" fill="#fff" opacity="0.80"/><circle cx="1125" cy="84" r="1.5" fill="#fff" opacity="0.72"/><circle cx="866" cy="108" r="1" fill="#fff" opacity="0.83"/><circle cx="817" cy="191" r="2" fill="#fff" opacity="0.94"/><circle cx="924" cy="61" r="1" fill="#fff" opacity="0.53"/><circle cx="692" cy="10" r="1" fill="#fff" opacity="0.75"/><circle cx="14" cy="36" r="1" fill="#fff" opacity="0.54"/><circle cx="64" cy="169" r="1" fill="#fff" opacity="0.71"/><circle cx="570" cy="248" r="1" fill="#fff" opacity="0.72"/><circle cx="1169" cy="242" r="1" fill="#fff" opacity="0.87"/><circle cx="833" cy="97" r="1" fill="#fff" opacity="0.46"/><circle cx="882" cy="181" r="2" fill="#fff" opacity="0.65"/><circle cx="110" cy="50" r="1" fill="#fff" opacity="0.64"/><circle cx="694" cy="55" r="1" fill="#fff" opacity="0.51"/><circle cx="1098" cy="229" r="1" fill="#fff" opacity="0.65"/><circle cx="570" cy="236" r="1" fill="#fff" opacity="0.92"/><circle cx="154" cy="226" r="1" fill="#fff" opacity="0.43"/><circle cx="1107" cy="7" r="1" fill="#fff" opacity="0.96"/><circle cx="484" cy="85" r="2" fill="#fff" opacity="0.69"/><circle cx="437" cy="205" r="1" fill="#fff" opacity="0.50"/><circle cx="4" cy="199" r="1.5" fill="#fff" opacity="0.96"/><circle cx="931" cy="146" r="2" fill="#fff" opacity="0.82"/><circle cx="1138" cy="249" r="1" fill="#fff" opacity="0.51"/><circle cx="445" cy="29" r="1" fill="#fff" opacity="0.85"/><circle cx="117" cy="25" r="2" fill="#fff" opacity="0.70"/><circle cx="1087" cy="80" r="1" fill="#fff" opacity="0.98"/><circle cx="164" cy="95" r="1" fill="#fff" opacity="0.76"/><circle cx="481" cy="206" r="1" fill="#fff" opacity="0.96"/><circle cx="1166" cy="126" r="1" fill="#fff" opacity="0.77"/><circle cx="858" cy="161" r="1.5" fill="#fff" opacity="0.52"/><circle cx="643" cy="122" r="1.5" fill="#fff" opacity="0.64"/><circle cx="614" cy="234" r="1.5" fill="#fff" opacity="0.96"/><circle cx="148" cy="4" r="2" fill="#fff" opacity="0.77"/><circle cx="1153" cy="51" r="1" fill="#fff" opacity="0.72"/><circle cx="1036" cy="135" r="1" fill="#fff" opacity="0.96"/><circle cx="140" cy="125" r="1.5" fill="#fff" opacity="0.57"/><circle cx="897" cy="154" r="1" fill="#fff" opacity="0.80"/><circle cx="1135" cy="153" r="1" fill="#fff" opacity="0.96"/><circle cx="275" cy="135" r="1" fill="#fff" opacity="0.93"/><circle cx="1133" cy="79" r="1.5" fill="#fff" opacity="0.57"/><circle cx="431" cy="175" r="1" fill="#fff" opacity="0.81"/><circle cx="540" cy="258" r="2" fill="#fff" opacity="0.55"/><circle cx="104" cy="47" r="2" fill="#fff" opacity="0.90"/><circle cx="90" cy="1" r="1.5" fill="#fff" opacity="0.86"/><circle cx="536" cy="82" r="2" fill="#fff" opacity="0.73"/><circle cx="875" cy="4" r="1" fill="#fff" opacity="0.45"/><circle cx="305" cy="18" r="1.5" fill="#fff" opacity="0.75"/><circle cx="303" cy="220" r="1" fill="#fff" opacity="0.43"/><circle cx="746" cy="20" r="1.5" fill="#fff" opacity="0.53"/><circle cx="511" cy="52" r="1.5" fill="#fff" opacity="0.87"/><circle cx="832" cy="79" r="1" fill="#fff" opacity="0.92"/><circle cx="362" cy="211" r="1" fill="#fff" opacity="0.51"/><circle cx="680" cy="210" r="1" fill="#fff" opacity="0.56"/><circle cx="221" cy="195" r="1" fill="#fff" opacity="0.92"/><circle cx="455" cy="102" r="2" fill="#fff" opacity="0.61"/><circle cx="466" cy="114" r="1" fill="#fff" opacity="0.80"/><circle cx="816" cy="168" r="1.5" fill="#fff" opacity="0.92"/><circle cx="571" cy="179" r="2" fill="#fff" opacity="0.81"/><circle cx="1098" cy="169" r="1" fill="#fff" opacity="0.47"/><circle cx="534" cy="91" r="1.5" fill="#fff" opacity="0.42"/><circle cx="889" cy="176" r="1.5" fill="#fff" opacity="0.66"/><circle cx="1047" cy="59" r="2" fill="#fff" opacity="0.94"/><circle cx="389" cy="130" r="1" fill="#fff" opacity="0.83"/><circle cx="3" cy="100" r="1.5" fill="#fff" opacity="0.66"/><circle cx="676" cy="160" r="1" fill="#fff" opacity="0.83"/><circle cx="615" cy="259" r="1.5" fill="#fff" opacity="0.80"/><circle cx="668" cy="206" r="1.5" fill="#fff" opacity="0.73"/><circle cx="392" cy="215" r="2" fill="#fff" opacity="0.81"/><circle cx="356" cy="154" r="2" fill="#fff" opacity="0.73"/><circle cx="0" cy="155" r="1.5" fill="#fff" opacity="0.53"/><circle cx="1187" cy="164" r="2" fill="#fff" opacity="0.67"/><circle cx="437" cy="242" r="1" fill="#fff" opacity="0.80"/><circle cx="581" cy="171" r="1" fill="#fff" opacity="0.89"/><circle cx="481" cy="158" r="1" fill="#fff" opacity="0.88"/><circle cx="301" cy="12" r="1" fill="#fff" opacity="0.55"/><circle cx="973" cy="37" r="2" fill="#fff" opacity="0.65"/><circle cx="1178" cy="99" r="2" fill="#fff" opacity="0.70"/><circle cx="499" cy="75" r="1" fill="#fff" opacity="0.94"/><circle cx="218" cy="217" r="1" fill="#fff" opacity="0.51"/><circle cx="1060" cy="237" r="1" fill="#fff" opacity="0.73"/><circle cx="248" cy="233" r="1" fill="#fff" opacity="0.88"/><circle cx="1087" cy="162" r="2" fill="#fff" opacity="0.77"/><circle cx="1033" cy="218" r="2" fill="#fff" opacity="0.94"/><circle cx="972" cy="230" r="1.5" fill="#fff" opacity="0.85"/><circle cx="567" cy="248" r="1" fill="#fff" opacity="0.56"/><circle cx="158" cy="146" r="1" fill="#fff" opacity="0.56"/><circle cx="654" cy="41" r="1" fill="#fff" opacity="0.49"/><circle cx="784" cy="78" r="1" fill="#fff" opacity="0.44"/><circle cx="834" cy="169" r="2" fill="#fff" opacity="0.65"/><circle cx="423" cy="215" r="2" fill="#fff" opacity="0.94"/><circle cx="1196" cy="10" r="2" fill="#fff" opacity="0.69"/><circle cx="720" cy="152" r="2" fill="#fff" opacity="0.91"/><circle cx="858" cy="112" r="2" fill="#fff" opacity="0.53"/><circle cx="892" cy="248" r="1" fill="#fff" opacity="0.63"/><circle cx="828" cy="84" r="2" fill="#fff" opacity="0.95"/><circle cx="1093" cy="13" r="2" fill="#fff" opacity="0.76"/><circle cx="55" cy="42" r="2" fill="#fff" opacity="0.48"/><circle cx="945" cy="93" r="1" fill="#fff" opacity="0.56"/><circle cx="670" cy="108" r="2" fill="#fff" opacity="0.60"/><circle cx="776" cy="142" r="2" fill="#fff" opacity="0.55"/><circle cx="167" cy="240" r="1" fill="#fff" opacity="0.85"/><circle cx="106" cy="179" r="1" fill="#fff" opacity="0.79"/><circle cx="82" cy="15" r="1" fill="#fff" opacity="0.52"/><circle cx="41" cy="78" r="1" fill="#fff" opacity="0.48"/><circle cx="234" cy="111" r="2" fill="#fff" opacity="0.82"/><circle cx="755" cy="85" r="1" fill="#fff" opacity="0.87"/><circle cx="980" cy="90" r="34" fill="#f5f1d6"/><polygon points="0,400 0,190 80,256 160,313 240,295 320,244 400,231 480,268 560,285 640,263 720,268 800,282 880,239 960,236 1040,262 1120,309 1200,297 1200,400" fill="#2f3e5c"/><polygon points="0,400 0,294 80,333 160,354 240,300 320,246 400,302 480,360 560,345 640,284 720,259 800,319 880,343 960,313 1040,302 1120,313 1200,299 1200,400" fill="#22304a"/><polygon points="0,400 0,344 80,346 160,340 240,353 320,345 400,370 480,391 560,342 640,303 720,347 800,404 880,392 960,325 1040,289 1120,368 1200,398 1200,400" fill="#161f33"/></svg>